<?xml version="1.0" encoding="utf-8"?>
<!-- Generator: Adobe Illustrator 16.0.0, SVG Export Plug-In . SVG Version: 6.00 Build 0)  -->
<!DOCTYPE svg PUBLIC "-//W3C//DTD SVG 1.1//EN" "http://www.w3.org/Graphics/SVG/1.1/DTD/svg11.dtd">
<svg version="1.1" id="Calque_1" xmlns="http://www.w3.org/2000/svg" xmlns:xlink="http://www.w3.org/1999/xlink" x="0px" y="0px"
	 width="595.28px" height="841.89px" viewBox="0 0 595.28 841.89" enable-background="new 0 0 595.28 841.89" xml:space="preserve">
<path fill="#634E42" d="M366.636,176.999c-41.021-40.967-126.749-39.17-166.498,3.183c-33.911,36.137-20.354,95.395,24.523,106.597
	c23.882,5.96,42.585-5.982,62.099-19.763c5.234,3.516,9.493,6.416,13.799,9.248c37.321,24.55,75.965,9.328,86.481-33.974
	C393.337,216.385,384.696,195.03,366.636,176.999z M216.295,252.775c-13.127-13.789-12.043-34.267,3.58-53.021
	c14.908,15.831,29.715,31.563,45.505,48.326C245.016,264.01,228.224,265.302,216.295,252.775z M286.688,231.512
	c-15.165-16.064-29.416-31.157-45.616-48.309c31.104-13.719,58.907-12.975,90.511-0.333
	C315.971,199.783,302.188,214.714,286.688,231.512z M351.284,255.071c-11.265,9.953-23.193,8.278-42.372-6.819
	c13.952-15.51,27.85-30.946,43.14-47.943C365.485,223.382,364.789,243.145,351.284,255.071z"/>
<g>
	<path fill="#BA801C" d="M283.322,141.756c-0.247,2.616,0.677,6.691,0.862,10.13c0.31,3.438-0.111,6.221-0.104,6.219
		c-0.009,0.004,3.429-2.697,6.119-6.162c2.818-3.455,4.863-7.637,5.087-10.307c0.289-3.506-2.192-6.461-3.824-8.085
		c-0.32-0.432-0.752-4.416-0.062-8.303c0.521-3.88,2.16-7.708,2.265-7.718c-0.104,0.009-2.039,3.83-3.084,7.673
		c-1.21,3.851-1.527,7.769-2.048,8.129C286.648,134.965,283.659,138.121,283.322,141.756z"/>
	<path fill="#BA801C" d="M294.188,127.872c-0.112,2.626,1.021,6.649,1.384,10.076c0.486,3.419,0.208,6.221,0.216,6.22
		c-0.008,0.001,3.287-2.874,5.796-6.477c2.638-3.601,4.467-7.887,4.554-10.568c0.108-3.518-2.522-6.342-4.236-7.878
		c-0.342-0.416-0.977-4.375-0.486-8.298c0.322-3.907,1.765-7.821,1.867-7.836c-0.103,0.015-1.841,3.938-2.688,7.835
		c-1.013,3.915-1.128,7.847-1.629,8.234C297.164,120.911,294.338,124.222,294.188,127.872z"/>
	<path fill="#BA801C" d="M304.332,113.422c0.023,2.632,1.361,6.594,1.898,10c0.66,3.393,0.529,6.208,0.535,6.206
		c-0.008,0.002,3.136-3.045,5.46-6.779c2.451-3.738,4.058-8.121,4.009-10.806c-0.072-3.524-2.845-6.21-4.636-7.655
		c-0.362-0.398-1.201-4.322-0.91-8.272c0.122-3.925,1.363-7.918,1.466-7.94c-0.101,0.021-1.639,4.038-2.288,7.982
		c-0.81,3.969-0.726,7.908-1.206,8.321C306.949,106.306,304.296,109.765,304.332,113.422z"/>
	<path fill="#BA801C" d="M313.73,98.436c0.158,2.631,1.698,6.523,2.408,9.901c0.833,3.359,0.846,6.179,0.852,6.178
		c-0.007,0.003,2.979-3.211,5.109-7.069c2.259-3.868,3.64-8.338,3.454-11.022c-0.252-3.522-3.16-6.062-5.023-7.413
		c-0.382-0.378-1.42-4.262-1.332-8.23c-0.076-3.937,0.96-8.001,1.061-8.027c-0.101,0.026-1.431,4.13-1.879,8.113
		c-0.607,4.016-0.321,7.953-0.782,8.393C315.982,91.178,313.508,94.78,313.73,98.436z"/>
	<path fill="#BA801C" d="M322.358,82.94c0.29,2.626,2.028,6.437,2.911,9.78c1.004,3.315,1.16,6.137,1.166,6.134
		c-0.007,0.005,2.812-3.37,4.745-7.344c2.059-3.992,3.213-8.542,2.889-11.219c-0.429-3.514-3.466-5.9-5.397-7.153
		c-0.401-0.358-1.636-4.191-1.751-8.172c-0.278-3.938,0.552-8.067,0.651-8.099c-0.1,0.031-1.219,4.216-1.463,8.229
		c-0.402,4.056,0.083,7.983-0.354,8.447C324.239,75.553,321.948,79.292,322.358,82.94z"/>
	<path fill="#BA801C" d="M330.19,66.96c0.425,2.614,2.354,6.338,3.405,9.638c1.174,3.265,1.474,6.082,1.48,6.079
		c-0.007,0.005,2.639-3.525,4.366-7.609c1.854-4.109,2.776-8.73,2.315-11.395c-0.61-3.498-3.766-5.726-5.758-6.875
		c-0.421-0.338-1.85-4.112-2.168-8.097c-0.479-3.933,0.139-8.12,0.236-8.156c-0.098,0.037-1.003,4.295-1.041,8.331
		c-0.195,4.088,0.491,7.997,0.077,8.486C331.691,59.458,329.594,63.328,330.19,66.96z"/>
	<path fill="#BA801C" d="M305.934,152.166c-2.608,0.912-6.876,0.885-10.337,1.318c-3.483,0.318-6.181,1.115-6.183,1.107
		c0.004,0.008,2.211-3.768,5.1-7.064c2.875-3.41,6.458-6.372,9.008-7.298c3.343-1.195,6.88,0.335,8.9,1.452
		c0.503,0.187,4.585-0.634,8.269-2.78c3.729-1.953,7.013-5.227,6.982-5.336c0.03,0.107-3.148,3.672-6.714,6.138
		c-3.518,2.653-7.377,4.205-7.611,4.834C312.171,146.938,309.572,150.92,305.934,152.166z"/>
	<path fill="#BA801C" d="M317.314,137.089c-2.561,1.048-6.825,1.245-10.26,1.858c-3.466,0.501-6.118,1.438-6.121,1.432
		c0.005,0.004,2.016-3.879,4.732-7.327c2.696-3.557,6.125-6.708,8.626-7.767c3.28-1.373,6.891-0.029,8.967,0.982
		c0.513,0.159,4.549-0.876,8.12-3.215c3.627-2.15,6.74-5.601,6.704-5.707c0.036,0.104-2.958,3.839-6.394,6.492
		c-3.38,2.841-7.156,4.593-7.358,5.237C323.278,131.535,320.885,135.652,317.314,137.089z"/>
	<path fill="#BA801C" d="M327.912,121.417c-2.505,1.185-6.755,1.604-10.157,2.399c-3.436,0.685-6.037,1.759-6.04,1.754
		c0.005,0.005,1.814-3.985,4.352-7.574c2.514-3.699,5.777-7.032,8.222-8.224c3.208-1.545,6.886-0.393,9.011,0.506
		c0.521,0.132,4.502-1.117,7.952-3.648c3.513-2.345,6.448-5.963,6.406-6.067c0.042,0.103-2.759,4-6.057,6.837
		c-3.232,3.021-6.917,4.975-7.087,5.629C333.587,115.547,331.406,119.793,327.912,121.417z"/>
	<path fill="#BA801C" d="M337.702,105.18c-2.442,1.319-6.669,1.964-10.028,2.941c-3.398,0.868-5.942,2.079-5.946,2.073
		c0.005,0.005,1.608-4.079,3.963-7.806c2.321-3.834,5.414-7.344,7.798-8.667c3.125-1.718,6.858-0.763,9.028,0.025
		c0.527,0.104,4.441-1.359,7.76-4.079c3.394-2.535,6.142-6.317,6.094-6.419c0.047,0.101-2.553,4.155-5.704,7.172
		c-3.077,3.2-6.658,5.351-6.795,6.014C343.074,99.004,341.111,103.368,337.702,105.18z"/>
	<path fill="#BA801C" d="M346.657,88.406c-2.374,1.45-6.564,2.324-9.87,3.48c-3.353,1.05-5.834,2.399-5.838,2.395
		c0.005,0.003,1.401-4.171,3.562-8.026c2.124-3.963,5.036-7.644,7.35-9.097c3.036-1.89,6.816-1.133,9.025-0.461
		c0.532,0.077,4.369-1.601,7.547-4.505c3.261-2.725,5.814-6.664,5.762-6.763c0.052,0.098-2.34,4.302-5.334,7.496
		c-2.912,3.372-6.382,5.72-6.483,6.391C351.711,81.934,349.972,86.409,346.657,88.406z"/>
	<path fill="#BA801C" d="M354.751,71.124c-2.298,1.582-6.441,2.683-9.687,4.02c-3.296,1.231-5.708,2.716-5.712,2.711
		c0.006,0.003,1.187-4.25,3.149-8.23c1.923-4.085,4.645-7.931,6.881-9.513c2.939-2.058,6.755-1.505,8.996-0.952
		c0.535,0.047,4.284-1.842,7.311-4.928c3.119-2.909,5.47-7,5.412-7.098c0.058,0.097-2.117,4.444-4.947,7.81
		c-2.736,3.54-6.085,6.082-6.152,6.76C359.471,64.364,357.962,68.944,354.751,71.124z"/>
	<path fill="#BA801C" d="M355.157,49.704c-1.504,2.692-5.003,6.264-7.551,9.366c-2.643,3.064-4.329,5.709-4.335,5.71
		c0.006,0-0.729-3.882-0.563-8.067c0.076-4.235,1.041-8.802,2.505-11.403c1.932-3.395,5.807-5.493,8.178-6.606
		c0.533-0.322,3.28-4.199,4.81-8.466c1.695-4.2,2.152-8.723,2.059-8.751c0.093,0.028-0.092,4.609-1.312,8.938
		c-1.059,4.391-3.137,8.477-2.907,9.005C356.688,41.686,357.268,45.969,355.157,49.704z"/>
	<path fill="#D3A72C" d="M293.057,143.223c0.297-0.417-0.102-0.837-0.451-0.416c-0.864,1.043-1.322,2.273-1.518,3.474
		c-0.09-0.77-0.15-1.559-0.026-2.39c0.112-0.758,0.448-1.54,0.495-2.279c0.019-0.306-0.277-0.448-0.553-0.239
		c-1.612,1.225-1.649,4.188-1.477,5.817c-2.468-4.72,0.808-6.532,1.491-11.738c0.311,2.802,2.323,4.352,2.485,6.334
		c0.102,1.569-0.65,2.929-1.43,4.226C292.188,145.061,292.445,144.086,293.057,143.223z"/>
	<path fill="#D3A72C" d="M303.871,128.993c0.275-0.434-0.146-0.833-0.473-0.393c-0.81,1.084-1.205,2.339-1.338,3.549
		c-0.132-0.765-0.23-1.548-0.15-2.386c0.075-0.764,0.371-1.563,0.379-2.304c0.005-0.306-0.298-0.433-0.563-0.21
		c-1.549,1.308-1.435,4.27-1.181,5.89c-2.705-4.589,0.477-6.57,0.896-11.811c0.453,2.787,2.543,4.229,2.805,6.204
		c0.182,1.564-0.501,2.959-1.215,4.298C303.096,130.873,303.304,129.885,303.871,128.993z"/>
	<path fill="#D3A72C" d="M314.122,113.947c0.253-0.447-0.188-0.823-0.493-0.368c-0.754,1.13-1.084,2.403-1.155,3.621
		c-0.169-0.757-0.309-1.536-0.271-2.378c0.034-0.767,0.289-1.582,0.26-2.323c-0.012-0.307-0.321-0.417-0.575-0.18
		c-1.479,1.389-1.212,4.345-0.876,5.952c-2.939-4.444,0.138-6.595,0.287-11.855c0.595,2.762,2.758,4.092,3.121,6.053
		c0.262,1.554-0.348,2.985-0.991,4.36C313.442,115.868,313.6,114.87,314.122,113.947z"/>
	<path fill="#D3A72C" d="M323.438,98.617c0.231-0.461-0.229-0.814-0.511-0.342c-0.695,1.169-0.962,2.46-0.972,3.683
		c-0.207-0.749-0.385-1.52-0.391-2.365c-0.004-0.77,0.21-1.598,0.142-2.338c-0.026-0.307-0.341-0.402-0.582-0.15
		c-1.41,1.469-0.994,4.411-0.576,6c-3.161-4.292-0.195-6.604-0.311-11.876c0.734,2.732,2.963,3.949,3.425,5.892
		c0.339,1.542-0.2,3.006-0.772,4.417C322.856,100.574,322.963,99.568,323.438,98.617z"/>
	<path fill="#D3A72C" d="M331.976,82.783c0.206-0.474-0.27-0.803-0.527-0.315c-0.637,1.208-0.837,2.515-0.785,3.738
		c-0.245-0.739-0.464-1.502-0.511-2.346c-0.042-0.771,0.128-1.611,0.024-2.349c-0.043-0.306-0.362-0.384-0.591-0.12
		c-1.334,1.545-0.77,4.469-0.272,6.037c-3.375-4.128-0.527-6.6-0.91-11.873c0.873,2.697,3.16,3.798,3.721,5.717
		c0.417,1.525-0.047,3.02-0.549,4.461C331.493,84.773,331.549,83.76,331.976,82.783z"/>
	<path fill="#D3A72C" d="M339.71,66.471c0.183-0.486-0.312-0.789-0.544-0.287c-0.575,1.243-0.71,2.563-0.596,3.787
		c-0.283-0.727-0.539-1.48-0.629-2.324c-0.082-0.769,0.047-1.62-0.094-2.353c-0.059-0.304-0.383-0.365-0.596-0.088
		c-1.257,1.619-0.545,4.518,0.032,6.062c-3.582-3.956-0.861-6.583-1.509-11.846c1.006,2.655,3.349,3.635,4.006,5.53
		c0.493,1.505,0.105,3.027-0.323,4.499C339.327,68.491,339.332,67.474,339.71,66.471z"/>
	<path fill="#D3A72C" d="M301.722,143.202c0.344-0.394,0.848-0.106,0.511,0.343c-0.831,1.11-1.95,1.852-3.093,2.311
		c0.777-0.082,1.567-0.203,2.362-0.525c0.726-0.291,1.424-0.818,2.144-1.052c0.298-0.097,0.505,0.159,0.358,0.486
		c-0.861,1.92-3.807,2.662-5.449,2.834c5.169,1.396,6.337-2.303,11.316-4.486c-2.859,0.515-4.854-1.063-6.841-0.708
		c-1.562,0.302-2.721,1.362-3.832,2.422C300.109,144.5,301.014,144.016,301.722,143.202z"/>
	<path fill="#D3A72C" d="M312.527,128.521c0.322-0.412,0.84-0.15,0.528,0.315c-0.774,1.151-1.855,1.953-2.975,2.471
		c0.772-0.123,1.556-0.285,2.334-0.647c0.71-0.331,1.382-0.892,2.088-1.164c0.294-0.112,0.514,0.132,0.384,0.466
		c-0.761,1.964-3.669,2.859-5.301,3.118c5.235,1.125,6.215-2.63,11.079-5.073c-2.831,0.663-4.904-0.811-6.87-0.352
		c-1.548,0.382-2.65,1.502-3.707,2.62C310.982,129.9,311.86,129.371,312.527,128.521z"/>
	<path fill="#D3A72C" d="M322.747,113.015c0.301-0.429,0.831-0.195,0.542,0.287c-0.714,1.192-1.753,2.052-2.844,2.63
		c0.765-0.164,1.54-0.37,2.299-0.772c0.692-0.368,1.335-0.965,2.027-1.274c0.287-0.128,0.519,0.105,0.406,0.446
		c-0.661,2.005-3.52,3.054-5.137,3.399c5.289,0.847,6.076-2.96,10.811-5.663c-2.794,0.812-4.942-0.55-6.883,0.013
		c-1.527,0.465-2.57,1.645-3.57,2.818C321.273,114.477,322.123,113.899,322.747,113.015z"/>
	<path fill="#D3A72C" d="M332.011,97.229c0.279-0.445,0.821-0.239,0.557,0.259c-0.653,1.23-1.647,2.145-2.71,2.781
		c0.758-0.205,1.521-0.451,2.259-0.894c0.673-0.406,1.285-1.036,1.961-1.382c0.28-0.143,0.526,0.078,0.431,0.425
		c-0.561,2.041-3.364,3.241-4.963,3.671c5.329,0.57,5.923-3.281,10.518-6.237c-2.752,0.961-4.968-0.289-6.878,0.378
		c-1.502,0.545-2.487,1.78-3.426,3.007C330.611,98.771,331.433,98.148,332.011,97.229z"/>
	<path fill="#D3A72C" d="M340.473,80.939c0.257-0.461,0.81-0.284,0.57,0.229c-0.593,1.267-1.54,2.236-2.567,2.929
		c0.745-0.245,1.496-0.531,2.211-1.015c0.652-0.442,1.232-1.105,1.891-1.488c0.273-0.159,0.529,0.05,0.449,0.402
		c-0.455,2.074-3.196,3.425-4.772,3.94c5.354,0.288,5.753-3.6,10.196-6.804c-2.701,1.11-4.979-0.025-6.854,0.744
		c-1.474,0.626-2.396,1.916-3.271,3.194C339.152,82.556,339.941,81.89,340.473,80.939z"/>
	<path fill="#D3A72C" d="M348.107,64.169c0.233-0.476,0.793-0.327,0.581,0.2c-0.526,1.301-1.426,2.323-2.418,3.072
		c0.732-0.285,1.47-0.613,2.158-1.136c0.63-0.477,1.175-1.173,1.815-1.592c0.264-0.173,0.53,0.022,0.47,0.38
		c-0.351,2.102-3.022,3.602-4.571,4.203c5.364,0.002,5.566-3.913,9.846-7.364c-2.645,1.256-4.977,0.242-6.812,1.113
		c-1.44,0.707-2.296,2.047-3.109,3.376C346.87,65.861,347.624,65.151,348.107,64.169z"/>
	<path fill="#D3A72C" d="M345.716,49.547c-0.035-0.483,0.551-0.834,0.632-0.336c0.198,1.234-0.084,2.585-0.597,3.842
		c0.52-0.759,1.018-1.549,1.371-2.424c0.323-0.799,0.454-1.668,0.815-2.439c0.148-0.319,0.491-0.41,0.624-0.14
		c0.781,1.586-0.854,4.659-1.954,6.267c4.888-4.29,3.004-6.892,5.068-12.466c-1.725,2.918-4.362,4.149-5.575,6.144
		c-0.94,1.582-1.022,3.1-1.067,4.577C345.472,51.588,345.788,50.544,345.716,49.547z"/>
	<path fill="#D3A72C" d="M152.261,286.184c0,0,101.722-61.311,134.966-126.9C287.227,159.283,239.824,230.883,152.261,286.184z"/>
	<path fill="#D3A72C" d="M204.359,248.826c44.869-78.158,39.419-148.322,39.419-148.322
		c11.574,97.709-39.034,147.648-39.034,147.648"/>
	<path fill="#D3A72C" d="M204.025,248.703c23.715-52.545,15.891-96.875,15.891-96.875c13.432,61.486-15.687,96.42-15.687,96.42"/>
	<path fill="#D3A72C" d="M190.009,259.854c25.624-44.635,22.511-84.701,22.511-84.701c6.609,55.797-22.292,84.316-22.292,84.316"/>
</g>
<rect x="105.074" y="297.351" fill="none" width="428.869" height="50.282"/>
<text transform="matrix(1 0 0 1 105.0742 331.4307)" fill="#634E42" font-family="'MyriadPro-Regular'" font-size="48">Boulangerie Muller</text>
<rect x="90.717" y="344.633" fill="none" width="475" height="133"/>
<text transform="matrix(1 0 0 1 90.7168 361.6733)" fill="#634E42" font-family="'MyriadPro-Regular'" font-size="24">Votre artisan boulanger prés de chez vous</text>
<path fill="#CA9E67" d="M351.027,182.633c0,0-85.309,141-146.668,88C204.359,270.633,244.055,320.633,351.027,182.633z"/>
</svg>
